<?xml version="1.0" encoding="utf-8"?>
<!-- Generator: Adobe Illustrator 26.3.1, SVG Export Plug-In . SVG Version: 6.00 Build 0)  -->
<svg version="1.1" id="Layer_1" xmlns="http://www.w3.org/2000/svg" xmlns:xlink="http://www.w3.org/1999/xlink" x="0px" y="0px"
	 viewBox="0 0 1054 440" style="enable-background:new 0 0 1054 440;" xml:space="preserve">
<style type="text/css">
	.st0{fill:#CADADB;}
	.st1{opacity:0.75;fill:#FFFFFF;enable-background:new    ;}
	.st2{fill:#FFFFFF;}
	.st3{opacity:0.747;fill:#FFFFFF;enable-background:new    ;}
	.st4{opacity:0.752;fill:#FFFFFF;enable-background:new    ;}
	.st5{opacity:0.746;fill:#FFFFFF;enable-background:new    ;}
	.st6{opacity:0.745;fill:#FFFFFF;enable-background:new    ;}
	.st7{fill:none;stroke:#ED2163;stroke-width:3;}
	.st8{fill:#EB2663;}
	.st9{font-family:'GillSans-SemiBold';}
	.st10{font-size:18px;}
	.st11{opacity:0.749;fill:#FFFFFF;enable-background:new    ;}
	.st12{font-family:'Helvetica-Bold';}
	.st13{opacity:0.754;fill:#FFFFFF;enable-background:new    ;}
	.st14{opacity:0.752;}
</style>
<path class="st0" d="M20,0h1014c11,0,20,9,20,20v400c0,11-9,20-20,20H20c-11,0-20-9-20-20V20C0,9,9,0,20,0z"/>
<path class="st1" d="M108.5,40h32c8,0,14.5,6.5,14.5,14.5l0,0c0,8-6.5,14.5-14.5,14.5h-32c-8,0-14.5-6.5-14.5-14.5l0,0
	C94,46.5,100.5,40,108.5,40z"/>
<path class="st2" d="M175.5,40h32c8,0,14.5,6.5,14.5,14.5l0,0c0,8-6.5,14.5-14.5,14.5h-32c-8,0-14.5-6.5-14.5-14.5l0,0
	C161,46.5,167.5,40,175.5,40z"/>
<path class="st2" d="M242.5,40h32c8,0,14.5,6.5,14.5,14.5l0,0c0,8-6.5,14.5-14.5,14.5h-32c-8,0-14.5-6.5-14.5-14.5l0,0
	C228,46.5,234.5,40,242.5,40z"/>
<path class="st2" d="M309.5,40h32c8,0,14.5,6.5,14.5,14.5l0,0c0,8-6.5,14.5-14.5,14.5h-32c-8,0-14.5-6.5-14.5-14.5l0,0
	C295,46.5,301.5,40,309.5,40z"/>
<path class="st3" d="M376.5,40h33c8,0,14.5,6.5,14.5,14.5l0,0c0,8-6.5,14.5-14.5,14.5h-33c-8,0-14.5-6.5-14.5-14.5l0,0
	C362,46.5,368.5,40,376.5,40z"/>
<path class="st3" d="M443.5,40h33c8,0,14.5,6.5,14.5,14.5l0,0c0,8-6.5,14.5-14.5,14.5h-33c-8,0-14.5-6.5-14.5-14.5l0,0
	C429,46.5,435.5,40,443.5,40z"/>
<path class="st3" d="M510.5,40h33c8,0,14.5,6.5,14.5,14.5l0,0c0,8-6.5,14.5-14.5,14.5h-33c-8,0-14.5-6.5-14.5-14.5l0,0
	C496,46.5,502.5,40,510.5,40z"/>
<path class="st2" d="M577.5,40h33c8,0,14.5,6.5,14.5,14.5l0,0c0,8-6.5,14.5-14.5,14.5h-33c-8,0-14.5-6.5-14.5-14.5l0,0
	C563,46.5,569.5,40,577.5,40z"/>
<path class="st2" d="M644.5,40h33c8,0,14.5,6.5,14.5,14.5l0,0c0,8-6.5,14.5-14.5,14.5h-33c-8,0-14.5-6.5-14.5-14.5l0,0
	C630,46.5,636.5,40,644.5,40z"/>
<path class="st2" d="M711.5,40h33c8,0,14.5,6.5,14.5,14.5l0,0c0,8-6.5,14.5-14.5,14.5h-33c-8,0-14.5-6.5-14.5-14.5l0,0
	C697,46.5,703.5,40,711.5,40z"/>
<path class="st4" d="M779.5,40h32c8,0,14.5,6.5,14.5,14.5l0,0c0,8-6.5,14.5-14.5,14.5h-32c-8,0-14.5-6.5-14.5-14.5l0,0
	C765,46.5,771.5,40,779.5,40z"/>
<path class="st4" d="M846.5,40h32c8,0,14.5,6.5,14.5,14.5l0,0c0,8-6.5,14.5-14.5,14.5h-32c-8,0-14.5-6.5-14.5-14.5l0,0
	C832,46.5,838.5,40,846.5,40z"/>
<path class="st4" d="M913.5,40h32c8,0,14.5,6.5,14.5,14.5l0,0c0,8-6.5,14.5-14.5,14.5h-32c-8,0-14.5-6.5-14.5-14.5l0,0
	C899,46.5,905.5,40,913.5,40z"/>
<g transform="translate(3.627 40.803)">
	<path class="st2" d="M101.4,40.2h39c4.4,0,8,3.6,8,8v37c0,4.4-3.6,8-8,8h-39c-4.4,0-8-3.6-8-8v-37C93.4,43.8,97,40.2,101.4,40.2z"
		/>
	<path class="st2" d="M165.4,40.2h38c4.4,0,8,3.6,8,8v37c0,4.4-3.6,8-8,8h-38c-4.4,0-8-3.6-8-8v-37C157.4,43.8,161,40.2,165.4,40.2z
		"/>
	<path class="st2" d="M228.4,40.2h39c4.4,0,8,3.6,8,8v37c0,4.4-3.6,8-8,8h-39c-4.4,0-8-3.6-8-8v-37C220.4,43.8,224,40.2,228.4,40.2z
		"/>
	<path class="st2" d="M292.4,40.2h38c4.4,0,8,3.6,8,8v37c0,4.4-3.6,8-8,8h-38c-4.4,0-8-3.6-8-8v-37C284.4,43.8,288,40.2,292.4,40.2z
		"/>
	<path class="st2" d="M355.4,40.2h38c4.4,0,8,3.6,8,8v37c0,4.4-3.6,8-8,8h-38c-4.4,0-8-3.6-8-8v-37C347.4,43.8,351,40.2,355.4,40.2z
		"/>
	<path class="st2" d="M419.4,40.2h38c4.4,0,8,3.6,8,8v37c0,4.4-3.6,8-8,8h-38c-4.4,0-8-3.6-8-8v-37C411.4,43.8,415,40.2,419.4,40.2z
		"/>
	<path class="st2" d="M482.4,40.2h38c4.4,0,8,3.6,8,8v37c0,4.4-3.6,8-8,8h-38c-4.4,0-8-3.6-8-8v-37C474.4,43.8,478,40.2,482.4,40.2z
		"/>
	<path class="st2" d="M545.4,40.2h39c4.4,0,8,3.6,8,8v37c0,4.4-3.6,8-8,8h-39c-4.4,0-8-3.6-8-8v-37C537.4,43.8,541,40.2,545.4,40.2z
		"/>
	<path class="st2" d="M609.4,40.2h38c4.4,0,8,3.6,8,8v37c0,4.4-3.6,8-8,8h-38c-4.4,0-8-3.6-8-8v-37C601.4,43.8,605,40.2,609.4,40.2z
		"/>
	<path class="st2" d="M672.4,40.2h39c4.4,0,8,3.6,8,8v37c0,4.4-3.6,8-8,8h-39c-4.4,0-8-3.6-8-8v-37C664.4,43.8,668,40.2,672.4,40.2z
		"/>
	<path class="st2" d="M736.4,40.2h38c4.4,0,8,3.6,8,8v37c0,4.4-3.6,8-8,8h-38c-4.4,0-8-3.6-8-8v-37C728.4,43.8,732,40.2,736.4,40.2z
		"/>
	<path class="st2" d="M799.4,40.2h39c4.4,0,8,3.6,8,8v37c0,4.4-3.6,8-8,8h-39c-4.4,0-8-3.6-8-8v-37C791.4,43.8,795,40.2,799.4,40.2z
		"/>
	<path class="st5" d="M863.4,40.2h85c4.4,0,8,3.6,8,8v37c0,4.4-3.6,8-8,8h-85c-4.4,0-8-3.6-8-8v-37C855.4,43.8,859,40.2,863.4,40.2z
		"/>
</g>
<path class="st6" d="M105,145h68c4.4,0,8,3.6,8,8v37c0,4.4-3.6,8-8,8h-68c-4.4,0-8-3.6-8-8v-37C97,148.6,100.6,145,105,145z"/>
<path class="st2" d="M199,145h38c4.4,0,8,3.6,8,8v37c0,4.4-3.6,8-8,8h-38c-4.4,0-8-3.6-8-8v-37C191,148.6,194.6,145,199,145z"/>
<path class="st2" d="M262,145h38c4.4,0,8,3.6,8,8v37c0,4.4-3.6,8-8,8h-38c-4.4,0-8-3.6-8-8v-37C254,148.6,257.6,145,262,145z"/>
<path class="st2" d="M325,145h39c4.4,0,8,3.6,8,8v37c0,4.4-3.6,8-8,8h-39c-4.4,0-8-3.6-8-8v-37C317,148.6,320.6,145,325,145z"/>
<path class="st2" d="M389,145h38c4.4,0,8,3.6,8,8v37c0,4.4-3.6,8-8,8h-38c-4.4,0-8-3.6-8-8v-37C381,148.6,384.6,145,389,145z"/>
<g transform="translate(346.84 -0.309)">
	<path class="st2" d="M105.2,145.3h39c4.4,0,8,3.6,8,8v37c0,4.4-3.6,8-8,8h-39c-4.4,0-8-3.6-8-8v-37
		C97.2,148.9,100.7,145.3,105.2,145.3z"/>
	<path class="st7" d="M105.2,146.8h39c3.6,0,6.5,2.9,6.5,6.5v37c0,3.6-2.9,6.5-6.5,6.5h-39c-3.6,0-6.5-2.9-6.5-6.5v-37
		C98.7,149.7,101.6,146.8,105.2,146.8z"/>
</g>
<g transform="translate(346.84 -0.309)">
	<path class="st2" d="M41.8,145.3h39c4.4,0,8,3.6,8,8v37c0,4.4-3.6,8-8,8h-39c-4.4,0-8-3.6-8-8v-37
		C33.8,148.9,37.4,145.3,41.8,145.3z"/>
	<path class="st7" d="M41.8,146.8h39c3.6,0,6.5,2.9,6.5,6.5v37c0,3.6-2.9,6.5-6.5,6.5h-39c-3.6,0-6.5-2.9-6.5-6.5v-37
		C35.3,149.7,38.2,146.8,41.8,146.8z"/>
</g>
<g transform="translate(346.84 -0.309)">
	<path class="st2" d="M-21.8,145.3h39c4.4,0,8,3.6,8,8v37c0,4.4-3.6,8-8,8h-39c-4.4,0-8-3.6-8-8v-37
		C-29.8,148.9-26.2,145.3-21.8,145.3z"/>
	<path class="st7" d="M-21.8,146.8h39c3.6,0,6.5,2.9,6.5,6.5v37c0,3.6-2.9,6.5-6.5,6.5h-39c-3.6,0-6.5-2.9-6.5-6.5v-37
		C-28.3,149.7-25.4,146.8-21.8,146.8z"/>
</g>
<g transform="translate(346.84 -0.309)">
	<path class="st2" d="M-85.6,145.3h39c4.4,0,8,3.6,8,8v37c0,4.4-3.6,8-8,8h-39c-4.4,0-8-3.6-8-8v-37
		C-93.6,148.9-90,145.3-85.6,145.3z"/>
	<path class="st7" d="M-85.6,146.8h39c3.6,0,6.5,2.9,6.5,6.5v37c0,3.6-2.9,6.5-6.5,6.5h-39c-3.6,0-6.5-2.9-6.5-6.5v-37
		C-92.1,149.7-89.2,146.8-85.6,146.8z"/>
</g>
<g transform="translate(410.84 -0.309)">
	<path class="st2" d="M105.2,145.3h38c4.4,0,8,3.6,8,8v37c0,4.4-3.6,8-8,8h-38c-4.4,0-8-3.6-8-8v-37
		C97.2,148.9,100.7,145.3,105.2,145.3z"/>
</g>
<g transform="translate(410.84 -0.309)">
	<path class="st2" d="M168.5,145.3h38c4.4,0,8,3.6,8,8v37c0,4.4-3.6,8-8,8h-38c-4.4,0-8-3.6-8-8v-37
		C160.5,148.9,164.1,145.3,168.5,145.3z"/>
	<path class="st7" d="M168.5,146.8h38c3.6,0,6.5,2.9,6.5,6.5v37c0,3.6-2.9,6.5-6.5,6.5h-38c-3.6,0-6.5-2.9-6.5-6.5v-37
		C162,149.7,164.9,146.8,168.5,146.8z"/>
</g>
<g transform="translate(410.84 -0.309)">
	<path class="st2" d="M231.6,145.3h38c4.4,0,8,3.6,8,8v37c0,4.4-3.6,8-8,8h-38c-4.4,0-8-3.6-8-8v-37
		C223.6,148.9,227.1,145.3,231.6,145.3z"/>
	<path class="st7" d="M231.6,146.8h38c3.6,0,6.5,2.9,6.5,6.5v37c0,3.6-2.9,6.5-6.5,6.5h-38c-3.6,0-6.5-2.9-6.5-6.5v-37
		C225.1,149.7,228,146.8,231.6,146.8z"/>
</g>
<g transform="translate(410.84 -0.309)">
	<path class="st2" d="M295.8,145.3h38c4.4,0,8,3.6,8,8v37c0,4.4-3.6,8-8,8h-38c-4.4,0-8-3.6-8-8v-37
		C287.8,148.9,291.3,145.3,295.8,145.3z"/>
	<path class="st7" d="M295.8,146.8h38c3.6,0,6.5,2.9,6.5,6.5v37c0,3.6-2.9,6.5-6.5,6.5h-38c-3.6,0-6.5-2.9-6.5-6.5v-37
		C289.3,149.7,292.2,146.8,295.8,146.8z"/>
</g>
<g transform="translate(410.84 -0.309)">
	<path class="st2" d="M359.1,145.3h38c4.4,0,8,3.6,8,8v37c0,4.4-3.6,8-8,8h-38c-4.4,0-8-3.6-8-8v-37
		C351.1,148.9,354.7,145.3,359.1,145.3z"/>
</g>
<path class="st2" d="M833,145h39c4.4,0,8,3.6,8,8v37c0,4.4-3.6,8-8,8h-39c-4.4,0-8-3.6-8-8v-37C825,148.6,828.6,145,833,145z"/>
<path class="st2" d="M897,145h55c4.4,0,8,3.6,8,8v37c0,4.4-3.6,8-8,8h-55c-4.4,0-8-3.6-8-8v-37C889,148.6,892.6,145,897,145z"/>
<text transform="matrix(1 0 0 1 593.2776 178)" class="st8 st9 st10">S</text>
<text transform="matrix(1 0 0 1 653.2019 178)" class="st8 st9 st10">O</text>
<text transform="matrix(1 0 0 1 720.803 178)" class="st8 st9 st10">Y</text>
<text transform="matrix(1 0 0 1 464 178)" class="st8 st9 st10">A</text>
<text transform="matrix(1 0 0 1 400.9987 178)" class="st8 st9 st10">L</text>
<text transform="matrix(1 0 0 1 337.3978 178)" class="st8 st9 st10">O</text>
<text transform="matrix(1 0 0 1 273.1202 178)" class="st8 st9 st10">H</text>
<path class="st11" d="M105,211h84c4.4,0,8,3.6,8,8v36c0,4.4-3.6,8-8,8h-84c-4.4,0-8-3.6-8-8v-36C97,214.6,100.6,211,105,211z"/>
<path class="st2" d="M212,211h39c4.4,0,8,3.6,8,8v36c0,4.4-3.6,8-8,8h-39c-4.4,0-8-3.6-8-8v-36C204,214.6,207.6,211,212,211z"/>
<path class="st8" d="M274,211h38c4.4,0,8,3.6,8,8v36c0,4.4-3.6,8-8,8h-38c-4.4,0-8-3.6-8-8v-36C266,214.6,269.6,211,274,211z"/>
<path class="st8" d="M335,211h39c4.4,0,8,3.6,8,8v36c0,4.4-3.6,8-8,8h-39c-4.4,0-8-3.6-8-8v-36C327,214.6,330.6,211,335,211z"/>
<path class="st8" d="M397,211h39c4.4,0,8,3.6,8,8v36c0,4.4-3.6,8-8,8h-39c-4.4,0-8-3.6-8-8v-36C389,214.6,392.6,211,397,211z"/>
<path class="st8" d="M459,211h38c4.4,0,8,3.6,8,8v36c0,4.4-3.6,8-8,8h-38c-4.4,0-8-3.6-8-8v-36C451,214.6,454.6,211,459,211z"/>
<path class="st8" d="M520,211h39c4.4,0,8,3.6,8,8v36c0,4.4-3.6,8-8,8h-39c-4.4,0-8-3.6-8-8v-36C512,214.6,515.6,211,520,211z"/>
<path class="st8" d="M582,211h39c4.4,0,8,3.6,8,8v36c0,4.4-3.6,8-8,8h-39c-4.4,0-8-3.6-8-8v-36C574,214.6,577.6,211,582,211z"/>
<path class="st8" d="M644,211h38c4.4,0,8,3.6,8,8v36c0,4.4-3.6,8-8,8h-38c-4.4,0-8-3.6-8-8v-36C636,214.6,639.6,211,644,211z"/>
<path class="st2" d="M705,211h39c4.4,0,8,3.6,8,8v36c0,4.4-3.6,8-8,8h-39c-4.4,0-8-3.6-8-8v-36C697,214.6,700.6,211,705,211z"/>
<path class="st2" d="M767,211h38c4.4,0,8,3.6,8,8v36c0,4.4-3.6,8-8,8h-38c-4.4,0-8-3.6-8-8v-36C759,214.6,762.6,211,767,211z"/>
<path class="st2" d="M829,211h38c4.4,0,8,3.6,8,8v36c0,4.4-3.6,8-8,8h-38c-4.4,0-8-3.6-8-8v-36C821,214.6,824.6,211,829,211z"/>
<path class="st11" d="M890,211h62c4.4,0,8,3.6,8,8v36c0,4.4-3.6,8-8,8h-62c-4.4,0-8-3.6-8-8v-36C882,214.6,885.6,211,890,211z"/>
<text transform="matrix(1 0 0 1 411 243)" class="st2 st12 st10">F</text>
<text transform="matrix(1 0 0 1 349.3042 243)" class="st2 st12 st10">L</text>
<text transform="matrix(1 0 0 1 285.6084 243)" class="st2 st12 st10">A</text>
<text transform="matrix(1 0 0 1 470 243)" class="st2 st12 st10">O</text>
<text transform="matrix(1 0 0 1 532 243)" class="st2 st12 st10">N</text>
<text transform="matrix(1 0 0 1 595 243)" class="st2 st12 st10">S</text>
<text transform="matrix(1 0 0 1 655.7476 243)" class="st2 st12 st10">O</text>
<g transform="translate(3.627 234.846)">
	<path class="st13" d="M101.4,40.2h115c4.4,0,8,3.6,8,8v37c0,4.4-3.6,8-8,8h-115c-4.4,0-8-3.6-8-8v-37C93.4,43.7,97,40.2,101.4,40.2
		z"/>
	<path class="st2" d="M239.4,40.2h38c4.4,0,8,3.6,8,8v37c0,4.4-3.6,8-8,8h-38c-4.4,0-8-3.6-8-8v-37C231.4,43.7,235,40.2,239.4,40.2z
		"/>
	<path class="st2" d="M301.4,40.2h38c4.4,0,8,3.6,8,8v37c0,4.4-3.6,8-8,8h-38c-4.4,0-8-3.6-8-8v-37C293.4,43.7,297,40.2,301.4,40.2z
		"/>
	<path class="st2" d="M362.4,40.2h39c4.4,0,8,3.6,8,8v37c0,4.4-3.6,8-8,8h-39c-4.4,0-8-3.6-8-8v-37C354.4,43.7,358,40.2,362.4,40.2z
		"/>
	<path class="st2" d="M424.4,40.2h38c4.4,0,8,3.6,8,8v37c0,4.4-3.6,8-8,8h-38c-4.4,0-8-3.6-8-8v-37C416.4,43.7,420,40.2,424.4,40.2z
		"/>
	<path class="st2" d="M486.4,40.2h38c4.4,0,8,3.6,8,8v37c0,4.4-3.6,8-8,8h-38c-4.4,0-8-3.6-8-8v-37C478.4,43.7,482,40.2,486.4,40.2z
		"/>
	<path class="st2" d="M547.4,40.2h39c4.4,0,8,3.6,8,8v37c0,4.4-3.6,8-8,8h-39c-4.4,0-8-3.6-8-8v-37C539.4,43.7,543,40.2,547.4,40.2z
		"/>
	<path class="st2" d="M609.4,40.2h38c4.4,0,8,3.6,8,8v37c0,4.4-3.6,8-8,8h-38c-4.4,0-8-3.6-8-8v-37C601.4,43.7,605,40.2,609.4,40.2z
		"/>
	<path class="st2" d="M671.4,40.2h38c4.4,0,8,3.6,8,8v37c0,4.4-3.6,8-8,8h-38c-4.4,0-8-3.6-8-8v-37C663.4,43.7,667,40.2,671.4,40.2z
		"/>
	<path class="st2" d="M732.4,40.2h39c4.4,0,8,3.6,8,8v37c0,4.4-3.6,8-8,8h-39c-4.4,0-8-3.6-8-8v-37C724.4,43.7,728,40.2,732.4,40.2z
		"/>
	<path class="st2" d="M794.4,40.2h38c4.4,0,8,3.6,8,8v37c0,4.4-3.6,8-8,8h-38c-4.4,0-8-3.6-8-8v-37C786.4,43.7,790,40.2,794.4,40.2z
		"/>
	<path class="st13" d="M856.4,40.2h92c4.4,0,8,3.6,8,8v37c0,4.4-3.6,8-8,8h-92c-4.4,0-8-3.6-8-8v-37C848.4,43.7,852,40.2,856.4,40.2
		z"/>
</g>
<g transform="translate(3.627 299.225)">
	<path class="st1" d="M215.4,48.8h29c4.4,0,8,3.6,8,8v37c0,4.4-3.6,8-8,8h-29c-4.4,0-8-3.6-8-8v-37C207.4,52.4,211,48.8,215.4,48.8z
		"/>
	<path class="st1" d="M157.4,48.8h30c4.4,0,8,3.6,8,8v37c0,4.4-3.6,8-8,8h-30c-4.4,0-8-3.6-8-8v-37C149.4,52.4,153,48.8,157.4,48.8z
		"/>
	<path class="st1" d="M101.4,48.8h29c4.4,0,8,3.6,8,8v37c0,4.4-3.6,8-8,8h-29c-4.4,0-8-3.6-8-8v-37C93.4,52.4,97,48.8,101.4,48.8z"
		/>
	<path class="st1" d="M271.4,48.8h54c4.4,0,8,3.6,8,8v37c0,4.4-3.6,8-8,8h-54c-4.4,0-8-3.6-8-8v-37C263.4,52.4,267,48.8,271.4,48.8z
		"/>
	<path class="st2" d="M351.4,48.8h272c4.4,0,8,3.6,8,8v37c0,4.4-3.6,8-8,8h-272c-4.4,0-8-3.6-8-8v-37
		C343.4,52.4,347,48.8,351.4,48.8z"/>
	<path class="st4" d="M650.4,48.8h54c4.4,0,8,3.6,8,8v37c0,4.4-3.6,8-8,8h-54c-4.4,0-8-3.6-8-8v-37C642.4,52.4,646,48.8,650.4,48.8z
		"/>
	<path class="st4" d="M731.4,48.8h30c4.4,0,8,3.6,8,8v37c0,4.4-3.6,8-8,8h-30c-4.4,0-8-3.6-8-8v-37C723.4,52.4,727,48.8,731.4,48.8z
		"/>
	<g transform="translate(686.403 0)" class="st14">
		<path class="st2" d="M170,39.8h24c8.8,0,16,7.2,16,16l0,0c0,4.4-3.6,8-8,8h-40c-4.4,0-8-3.6-8-8l0,0C154,46.9,161.1,39.8,170,39.8
			z"/>
		<path class="st2" d="M106,72.8h37c3.3,0,6,2.7,6,6v12c0,3.3-2.7,6-6,6h-37c-6.6,0-12-5.4-12-12l0,0C94,78.1,99.3,72.8,106,72.8z"
			/>
		<path class="st2" d="M221,71.8h37c6.6,0,12,5.4,12,12l0,0c0,6.6-5.4,12-12,12h-37c-3.3,0-6-2.7-6-6v-12
			C215,74.5,217.7,71.8,221,71.8z"/>
		<path class="st2" d="M162,72.8h40c4.4,0,8,3.6,8,8l0,0c0,8.8-7.2,16-16,16h-24c-8.8,0-16-7.2-16-16l0,0
			C154,76.4,157.6,72.8,162,72.8z"/>
	</g>
</g>
</svg>
