<?xml version="1.0" encoding="utf-8"?>
<!-- Generator: Adobe Illustrator 26.3.1, SVG Export Plug-In . SVG Version: 6.00 Build 0)  -->
<svg version="1.1" id="Layer_1" xmlns="http://www.w3.org/2000/svg" xmlns:xlink="http://www.w3.org/1999/xlink" x="0px" y="0px"
	 viewBox="0 0 500 375.68" style="enable-background:new 0 0 500 375.68;" xml:space="preserve">
<style type="text/css">
	.st0{fill:#C7C7C7;}
</style>
<path class="st0" d="M402.58,221.21c0,0-80.03-17.93-154.81-17.93S95.93,221.21,95.93,221.21v47.63c0,0,62.71-16.55,151.83-16.55
	c96.8,0,154.81,16.55,154.81,16.55V221.21z"/>
<path class="st0" d="M43,343.46h65.32c0,0-0.77-50.23,0-105.19c0.97-68.98-7.94-145.91,53.66-145.91
	c67.99,0,52.87,77.52,54.5,145.91c1.32,55.07,0,105.19,0,105.19h67.86c0,0,0-106.67,0-185.14S234.08,31.28,161.98,31.28
	S43,80.87,43,158.32C43,241.45,43,343.46,43,343.46z"/>
<path class="st0" d="M217.66,343.46h65.32c0,0-0.77-50.23,0-105.19c0.97-68.98-7.94-145.91,53.66-145.91
	c67.99,0,52.87,77.52,54.5,145.91c1.32,55.07,0,105.19,0,105.19H459c0,0,0-106.67,0-185.14S408.74,31.28,336.63,31.28
	S217.66,80.87,217.66,158.32C217.66,241.45,217.66,343.46,217.66,343.46z"/>
</svg>
